<?xml version="1.0" encoding="UTF-8"?>
<svg xmlns="http://www.w3.org/2000/svg" viewBox="0 0 512 512" role="img" aria-labelledby="title">
  <title id="title">Gabriel Bomfim portfolio monogram</title>
  <rect width="512" height="512" rx="96" fill="#07101f"/>
  <path d="M102 140h308M102 256h308M102 372h308" stroke="#1f3b61" stroke-width="18" stroke-linecap="round"/>
  <path d="M136 126h110c46 0 78 29 78 70 0 22-9 40-25 52 25 13 40 35 40 65 0 47-36 77-91 77H136V126Zm96 96c21 0 34-10 34-27s-13-27-34-27h-42v54h42Zm8 126c25 0 40-12 40-33s-15-33-40-33h-50v66h50Z" fill="#55a7ff"/>
  <path d="M373 143c-28-22-64-34-103-34-95 0-172 75-172 166s77 166 172 166c44 0 85-16 116-43V262H264v66h58v36c-16 9-34 14-54 14-57 0-101-43-101-103s44-103 101-103c24 0 45 7 63 21l42-50Z" fill="#f3f7fd"/>
  <circle cx="390" cy="390" r="28" fill="#03ce78"/>
</svg>
