<?xml version="1.0" encoding="UTF-8"?>
<svg id="Camada_1" data-name="Camada 1" xmlns="http://www.w3.org/2000/svg" viewBox="0 0 512 512">
  <defs>
    <style>
      .cls-1 {
        fill: #00d97e;
      }
    </style>
  </defs>
  <path class="cls-1" d="M240.86,154.2c89.1-34.63,150.65-19.22,179.26-7.3l.28-128.15c-78.93-46.74-158.1,7.47-237.15,16.85-16.02,1.93-32.01,2-48.02-1-14.43-2.68-28.84-7.84-43.26-16.37l-.3,134.48c18.22,10.08,70.95,32,149.19,1.49Z"/>
  <path class="cls-1" d="M240.86,326.14c89.04-34.61,150.57-19.23,179.2-7.32l.28-124.89c-24.19-10.27-86.04-29.45-163.68.8-36.63,14.27-70.7,21.51-101.28,21.51s-49.73-6.67-63.49-13.33l-.27,121.72c18.16,10.07,70.92,32.07,149.24,1.52Z"/>
  <path class="cls-1" d="M91.86,374.83l-.03,14.07-.23,104.45c14.41,8.53,28.83,13.71,43.26,16.39,10.45,1.95,20.89,2.49,31.34,2.17,5.24-.58,10.49-.96,15.73-1.09.32-.04.64-.05.96-.08,24.28-2.88,48.57-10,72.86-17.11.09-.03.19-.06.28-.08v-126.68c-36.38,14.1-70.26,21.32-100.65,21.32s-49.75-6.68-63.51-13.35Z"/>
</svg>
