<?xml version="1.0" encoding="UTF-8"?>
<svg id="Camada_1" data-name="Camada 1" xmlns="http://www.w3.org/2000/svg" viewBox="0 0 170.08 48">
  <defs>
    <style>
      .cls-1 {
        fill: #0a1628;
      }

      .cls-2 {
        fill: #00d97e;
      }
    </style>
  </defs>
  <path class="cls-1" d="M6.64,33.73c-2.12-1.13-3.76-2.72-4.91-4.78C.58,26.9,0,24.5,0,21.78s.58-5.12,1.73-7.18c1.15-2.06,2.79-3.65,4.91-4.78,2.12-1.13,4.58-1.69,7.38-1.69s5.26.56,7.38,1.69c2.12,1.13,3.76,2.72,4.91,4.78s1.73,4.45,1.73,7.18-.58,5.12-1.73,7.18-2.79,3.65-4.91,4.78c-2.12,1.13-4.58,1.69-7.38,1.69s-5.26-.57-7.38-1.69ZM18.17,28.97c1.2-.68,2.13-1.64,2.79-2.88.66-1.24.99-2.68.99-4.32s-.33-3.07-.99-4.31-1.59-2.2-2.79-2.88c-1.2-.68-2.58-1.02-4.15-1.02s-2.94.34-4.13,1.02c-1.19.68-2.11,1.64-2.77,2.88s-.99,2.68-.99,4.31.33,3.08.99,4.32c.66,1.24,1.58,2.2,2.77,2.88s2.57,1.02,4.13,1.02,2.94-.34,4.15-1.02Z"/>
  <path class="cls-1" d="M44.26,16.48c.84.31,1.57.76,2.19,1.36l-2.45,4.28c-.52-.32-1-.56-1.45-.71-.45-.15-.92-.22-1.41-.22-1.24,0-2.22.4-2.94,1.19s-1.08,1.96-1.08,3.5v8.93h-5.84v-18.37h5.1l.45,2.31c1.19-1.81,2.83-2.72,4.91-2.72.84,0,1.69.15,2.53.46Z"/>
  <path class="cls-1" d="M85.99,16.42v18.37h-5.06l-.37-2.19c-1.56,1.71-3.6,2.57-6.1,2.57-1.71,0-3.23-.4-4.56-1.21-1.33-.81-2.36-1.93-3.11-3.39-.74-1.45-1.12-3.11-1.12-4.96s.37-3.51,1.12-4.97c.74-1.45,1.78-2.58,3.11-3.38,1.33-.81,2.85-1.21,4.56-1.21,1.24,0,2.38.22,3.42.65s1.93,1.06,2.68,1.88l.37-2.16h5.06ZM79,28.97c.82-.86,1.23-1.98,1.23-3.37s-.41-2.51-1.23-3.37c-.82-.86-1.87-1.28-3.16-1.28s-2.34.43-3.14,1.3c-.81.87-1.21,1.98-1.21,3.35s.4,2.48,1.21,3.35c.81.87,1.85,1.3,3.14,1.3s2.34-.43,3.16-1.28Z"/>
  <path class="cls-2" d="M133.71,16.42v18.37h-5.06l-.37-2.19c-1.56,1.71-3.6,2.57-6.1,2.57-1.71,0-3.23-.4-4.56-1.21-1.33-.81-2.36-1.93-3.11-3.39-.74-1.45-1.12-3.11-1.12-4.96s.37-3.51,1.12-4.97c.74-1.45,1.78-2.58,3.11-3.38,1.33-.81,2.85-1.21,4.56-1.21,1.24,0,2.38.22,3.42.65s1.93,1.06,2.68,1.88l.37-2.16h5.06ZM126.72,28.97c.82-.86,1.23-1.98,1.23-3.37s-.41-2.51-1.23-3.37c-.82-.86-1.87-1.28-3.16-1.28s-2.34.43-3.14,1.3c-.81.87-1.21,1.98-1.21,3.35s.4,2.48,1.21,3.35c.81.87,1.85,1.3,3.14,1.3s2.34-.43,3.16-1.28Z"/>
  <path class="cls-2" d="M136.76,32.82l2.23-4.02c.89.54,1.93.97,3.11,1.26,1.18.3,2.35.45,3.51.45,1.61,0,2.42-.43,2.42-1.3,0-.45-.22-.78-.67-1s-1.19-.37-2.23-.44c-2.33-.12-4.18-.71-5.56-1.75-1.38-1.04-2.06-2.4-2.06-4.09,0-1.83.74-3.29,2.23-4.37,1.49-1.08,3.5-1.62,6.03-1.62,1.44,0,2.81.17,4.11.52s2.42.83,3.37,1.45l-2.27,3.9c-1.39-.79-3.04-1.19-4.95-1.19s-2.83.45-2.83,1.34c0,.37.19.66.58.85.38.2,1.04.35,1.95.45,2.63.2,4.63.79,6.01,1.79,1.38.99,2.06,2.38,2.06,4.16,0,1.88-.76,3.37-2.27,4.44-1.51,1.08-3.61,1.62-6.29,1.62-3.25,0-6.08-.82-8.48-2.45Z"/>
  <path class="cls-2" d="M170.08,34.09c-1.44.72-3.06,1.08-4.87,1.08-2.01,0-3.59-.56-4.76-1.69-1.17-1.13-1.75-2.95-1.75-5.45v-6.96h-3.13v-4.65h3.13v-4.58l5.8-.63v5.21h4.58v4.65h-4.58v6.96c0,.74.19,1.3.56,1.65.37.36.88.54,1.53.54.72,0,1.43-.18,2.12-.52l1.38,4.39Z"/>
  <path class="cls-1" d="M64.44,31.95l-3.31-3.5c-1.07,1.07-2.36,1.6-3.87,1.6-1.36,0-2.46-.43-3.29-1.28s-1.25-1.98-1.25-3.37.42-2.51,1.26-3.37c.84-.86,1.93-1.28,3.27-1.28,1.41,0,2.64.48,3.68,1.45l3.24-3.53c-.97-.94-2.07-1.66-3.31-2.14-.63-.25-1.28-.43-1.95-.55v-3.28h-5.04v3.51c-.76.2-1.49.44-2.16.8-1.51.81-2.69,1.93-3.53,3.38s-1.26,3.13-1.26,5.04.41,3.62,1.25,5.06c.83,1.44,2.01,2.55,3.53,3.33.67.34,1.41.58,2.18.77v3.51h5.04v-3.28c2.08-.35,3.92-1.3,5.52-2.88Z"/>
  <g>
    <path class="cls-2" d="M99.67,16.5c5.22-2.03,8.82-1.13,10.5-.43l.02-7.5c-4.62-2.74-9.26.44-13.88.99-.94.11-1.87.12-2.81-.06-.84-.16-1.69-.46-2.53-.96l-.02,7.87c1.07.59,4.15,1.87,8.73.09Z"/>
    <path class="cls-2" d="M99.67,26.56c5.21-2.03,8.82-1.13,10.49-.43l.02-7.31c-1.42-.6-5.04-1.72-9.58.05-2.14.84-4.14,1.26-5.93,1.26s-2.91-.39-3.72-.78l-.02,7.13c1.06.59,4.15,1.88,8.74.09Z"/>
    <path class="cls-2" d="M90.94,29.41v.82s-.02,6.12-.02,6.12c.84.5,1.69.8,2.53.96.61.11,1.22.15,1.83.13.31-.03.61-.06.92-.06.02,0,.04,0,.06,0,1.42-.17,2.84-.59,4.27-1,0,0,.01,0,.02,0v-7.42c-2.13.83-4.11,1.25-5.89,1.25s-2.91-.39-3.72-.78Z"/>
  </g>
</svg>